<?xml version="1.0" encoding="UTF-8"?>
<svg width="22px" height="24px" viewBox="0 0 22 24" version="1.1" xmlns="http://www.w3.org/2000/svg" xmlns:xlink="http://www.w3.org/1999/xlink">
    <!-- Generator: sketchtool 58 (101010) - https://sketch.com -->
    <title>93994F8E-B1B2-4E13-9E35-D58D3FD43380</title>
    <desc>Created with sketchtool.</desc>
    <defs>
        <path d="M9.91507126,12.0150132 L1.23564065,4.0462632 C0.635738824,3.49548195 0.635738824,2.60485695 1.23564065,2.05993508 L2.67795778,0.735716325 C3.27785959,0.184935075 4.24791359,0.184935075 4.84143347,0.735716325 L10.9936181,6.38415383 L17.1458026,0.735716325 C17.7457044,0.184935075 18.7157584,0.184935075 19.3092784,0.735716325 L20.7643593,2.0540757 C21.3642611,2.60485695 21.3642611,3.49548195 20.7643593,4.04040383 L12.0849287,12.0091538 C11.4850269,12.5657945 10.5149731,12.5657945 9.91507126,12.0150132 Z M12.0849287,23.2650132 L20.7643593,15.2962632 C21.3642611,14.745482 21.3642611,13.854857 20.7643593,13.309935 L19.3220421,11.9857163 C18.7221403,11.434935 17.7520865,11.434935 17.1585665,11.9857163 L11,17.6282945 L4.84781542,11.979857 C4.24791359,11.4290757 3.27785959,11.4290757 2.68433971,11.979857 L1.23564065,13.3040757 C0.635738824,13.854857 0.635738824,14.745482 1.23564065,15.2904038 L9.91507126,23.2591538 C10.5149731,23.8157945 11.4850269,23.8157945 12.0849287,23.2650132 Z" id="path-1"></path>
    </defs>
    <g id="Page-1" stroke="none" stroke-width="1" fill="none" fill-rule="evenodd">
        <g id="HiGeorge-HomePage-Design-V2-(first-screen-V4)" transform="translate(-949.000000, -766.000000)">
            <g id="angle-double-down" transform="translate(949.000000, 766.000000)">
                <g fill="#000000" fill-rule="nonzero" id="path-1">
                    <path d="M9.91507126,12.0150132 L1.23564065,4.0462632 C0.635738824,3.49548195 0.635738824,2.60485695 1.23564065,2.05993508 L2.67795778,0.735716325 C3.27785959,0.184935075 4.24791359,0.184935075 4.84143347,0.735716325 L10.9936181,6.38415383 L17.1458026,0.735716325 C17.7457044,0.184935075 18.7157584,0.184935075 19.3092784,0.735716325 L20.7643593,2.0540757 C21.3642611,2.60485695 21.3642611,3.49548195 20.7643593,4.04040383 L12.0849287,12.0091538 C11.4850269,12.5657945 10.5149731,12.5657945 9.91507126,12.0150132 Z M12.0849287,23.2650132 L20.7643593,15.2962632 C21.3642611,14.745482 21.3642611,13.854857 20.7643593,13.309935 L19.3220421,11.9857163 C18.7221403,11.434935 17.7520865,11.434935 17.1585665,11.9857163 L11,17.6282945 L4.84781542,11.979857 C4.24791359,11.4290757 3.27785959,11.4290757 2.68433971,11.979857 L1.23564065,13.3040757 C0.635738824,13.854857 0.635738824,14.745482 1.23564065,15.2904038 L9.91507126,23.2591538 C10.5149731,23.8157945 11.4850269,23.8157945 12.0849287,23.2650132 Z"></path>
                </g>
                <g id="Colors/Primary-Clipped">
                    <mask id="mask-2" fill="white">
                        <use xlink:href="#path-1"></use>
                    </mask>
                    <g id="path-1"></g>
                    <g id="Colors/Primary" mask="url(#mask-2)" fill="#FFFFFF" fill-rule="nonzero">
                        <g transform="translate(-7.857143, -6.000000)" id="Rectangle">
                            <rect x="0" y="0" width="37.7142857" height="36"></rect>
                        </g>
                    </g>
                </g>
            </g>
        </g>
    </g>
</svg>