<svg width="18px" height="18px" viewBox="0 0 18 18" version="1.1" xmlns="http://www.w3.org/2000/svg" xmlns:xlink="http://www.w3.org/1999/xlink">
    <defs>
        <path d="M18,2.125 L18,15.875 C18,16.9101562 17.1361607,17.75 16.0714286,17.75 L12.6441964,17.75 L12.6441964,10.828125 L15.0790179,10.828125 L15.4285714,8.1875 L12.6441964,8.1875 L12.6441964,6.5 C12.6441964,5.734375 12.8611607,5.21484375 13.9901786,5.21484375 L15.4285714,5.21484375 L15.4285714,2.85546875 C15.1794643,2.82421875 14.3276786,2.75 13.33125,2.75 C11.2580357,2.75 9.8357143,3.98046875 9.8357143,6.2421875 L9.8357143,8.1914062 L7.3928571,8.1914062 L7.3928571,10.8320312 L9.8397321,10.8320312 L9.8397321,17.75 L1.92857143,17.75 C0.86383929,17.75 0,16.9101562 0,15.875 L0,2.125 C0,1.08984375 0.86383929,0.25 1.92857143,0.25 L16.0714286,0.25 C17.1361607,0.25 18,1.08984375 18,2.125 Z" id="path-1"></path>
    </defs>
    <g id="Page-1" stroke="none" stroke-width="1" fill="none" fill-rule="evenodd">
        <g id="HiGeorge-HomePage-Design-V2-(first-screen-V4)" transform="translate(-625.000000, -6789.000000)">
            <g id="Group-15" transform="translate(560.000000, 6789.000000)">
                <g id="facebook-square" transform="translate(65.000000, 0.000000)">
                    <g fill="#000000" fill-rule="nonzero" id="path-1">
                        <path d="M18,2.125 L18,15.875 C18,16.9101562 17.1361607,17.75 16.0714286,17.75 L12.6441964,17.75 L12.6441964,10.828125 L15.0790179,10.828125 L15.4285714,8.1875 L12.6441964,8.1875 L12.6441964,6.5 C12.6441964,5.734375 12.8611607,5.21484375 13.9901786,5.21484375 L15.4285714,5.21484375 L15.4285714,2.85546875 C15.1794643,2.82421875 14.3276786,2.75 13.33125,2.75 C11.2580357,2.75 9.8357143,3.98046875 9.8357143,6.2421875 L9.8357143,8.1914062 L7.3928571,8.1914062 L7.3928571,10.8320312 L9.8397321,10.8320312 L9.8397321,17.75 L1.92857143,17.75 C0.86383929,17.75 0,16.9101562 0,15.875 L0,2.125 C0,1.08984375 0.86383929,0.25 1.92857143,0.25 L16.0714286,0.25 C17.1361607,0.25 18,1.08984375 18,2.125 Z"></path>
                    </g>
                    <g id="Colors/Primary-Clipped">
                        <mask id="mask-2" fill="white">
                            <use xlink:href="#path-1"></use>
                        </mask>
                        <g id="path-1"></g>
                        <g id="Colors/Primary" mask="url(#mask-2)" fill="#811FD1" fill-rule="nonzero">
                            <g transform="translate(-3.000000, -3.000000)" id="Rectangle">
                                <rect x="0" y="0" width="24" height="24"></rect>
                            </g>
                        </g>
                    </g>
                </g>
            </g>
        </g>
    </g>
</svg>