<svg width="18px" height="18px" viewBox="0 0 18 18" version="1.1" xmlns="http://www.w3.org/2000/svg" xmlns:xlink="http://www.w3.org/1999/xlink">
    <defs>
        <path d="M9.0020078,4.51171875 C6.44807585,4.51171875 4.3880647,6.515625 4.3880647,9 C4.3880647,11.484375 6.44807585,13.4882812 9.0020078,13.4882812 C11.5559398,13.4882812 13.6159509,11.484375 13.6159509,9 C13.6159509,6.515625 11.5559398,4.51171875 9.0020078,4.51171875 Z M9.0020078,11.9179687 C7.3515895,11.9179687 6.00234244,10.609375 6.00234244,9 C6.00234244,7.390625 7.3475739,6.08203125 9.0020078,6.08203125 C10.6564417,6.08203125 12.0016732,7.390625 12.0016732,9 C12.0016732,10.609375 10.6524261,11.9179687 9.0020078,11.9179687 L9.0020078,11.9179687 Z M14.8808701,4.328125 C14.8808701,4.91015625 14.3989961,5.375 13.8046849,5.375 C13.2063581,5.375 12.7284997,4.90625 12.7284997,4.328125 C12.7284997,3.75 13.2103737,3.28125 13.8046849,3.28125 C14.3989961,3.28125 14.8808701,3.75 14.8808701,4.328125 Z M17.936754,5.390625 C17.8684886,3.98828125 17.539208,2.74609375 16.4831009,1.72265625 C15.4310095,0.69921875 14.1540435,0.37890625 12.7124373,0.30859375 C11.2266592,0.2265625 6.77334077,0.2265625 5.28756274,0.30859375 C3.84997211,0.375 2.57300613,0.6953125 1.51689905,1.71875 C0.46079197,2.7421875 0.13552705,3.984375 0.06324596,5.38671875 C-0.02108199,6.83203125 -0.02108199,11.1640625 0.06324596,12.609375 C0.13151143,14.0117188 0.46079197,15.2539062 1.51689905,16.2773438 C2.57300613,17.3007813 3.8459565,17.6210938 5.28756274,17.6914063 C6.77334077,17.7734375 11.2266592,17.7734375 12.7124373,17.6914063 C14.1540435,17.625 15.4310095,17.3046875 16.4831009,16.2773438 C17.5351924,15.2539063 17.864473,14.0117188 17.936754,12.609375 C18.021082,11.1640625 18.021082,6.8359375 17.936754,5.390625 Z M16.0172895,14.1601562 C15.7040714,14.9257812 15.0977133,15.515625 14.3066369,15.8242187 C13.1220301,16.28125 10.3110987,16.1757812 9.0020078,16.1757812 C7.6929169,16.1757812 4.87796988,16.2773437 3.69737869,15.8242187 C2.9103179,15.5195312 2.30395984,14.9296875 1.98672616,14.1601562 C1.51689905,13.0078125 1.62532069,10.2734375 1.62532069,9 C1.62532069,7.7265625 1.52091467,4.98828125 1.98672616,3.83984375 C2.29994423,3.07421875 2.90630229,2.484375 3.69737869,2.17578125 C4.8819855,1.71875 7.6929169,1.82421875 9.0020078,1.82421875 C10.3110987,1.82421875 13.1260457,1.72265625 14.3066369,2.17578125 C15.0936977,2.48046875 15.7000558,3.0703125 16.0172895,3.83984375 C16.4871166,4.9921875 16.3786949,7.7265625 16.3786949,9 C16.3786949,10.2734375 16.4871166,13.0117187 16.0172895,14.1601562 Z" id="path-1"></path>
    </defs>
    <g id="Page-1" stroke="none" stroke-width="1" fill="none" fill-rule="evenodd">
        <g id="HiGeorge-HomePage-Design-V2-(first-screen-V4)" transform="translate(-751.000000, -6789.000000)">
            <g id="Group-15" transform="translate(560.000000, 6789.000000)">
                <g id="instagram" transform="translate(191.000000, 0.000000)">
                    <g fill="#000000" fill-rule="nonzero" id="path-1">
                        <path d="M9.0020078,4.51171875 C6.44807585,4.51171875 4.3880647,6.515625 4.3880647,9 C4.3880647,11.484375 6.44807585,13.4882812 9.0020078,13.4882812 C11.5559398,13.4882812 13.6159509,11.484375 13.6159509,9 C13.6159509,6.515625 11.5559398,4.51171875 9.0020078,4.51171875 Z M9.0020078,11.9179687 C7.3515895,11.9179687 6.00234244,10.609375 6.00234244,9 C6.00234244,7.390625 7.3475739,6.08203125 9.0020078,6.08203125 C10.6564417,6.08203125 12.0016732,7.390625 12.0016732,9 C12.0016732,10.609375 10.6524261,11.9179687 9.0020078,11.9179687 L9.0020078,11.9179687 Z M14.8808701,4.328125 C14.8808701,4.91015625 14.3989961,5.375 13.8046849,5.375 C13.2063581,5.375 12.7284997,4.90625 12.7284997,4.328125 C12.7284997,3.75 13.2103737,3.28125 13.8046849,3.28125 C14.3989961,3.28125 14.8808701,3.75 14.8808701,4.328125 Z M17.936754,5.390625 C17.8684886,3.98828125 17.539208,2.74609375 16.4831009,1.72265625 C15.4310095,0.69921875 14.1540435,0.37890625 12.7124373,0.30859375 C11.2266592,0.2265625 6.77334077,0.2265625 5.28756274,0.30859375 C3.84997211,0.375 2.57300613,0.6953125 1.51689905,1.71875 C0.46079197,2.7421875 0.13552705,3.984375 0.06324596,5.38671875 C-0.02108199,6.83203125 -0.02108199,11.1640625 0.06324596,12.609375 C0.13151143,14.0117188 0.46079197,15.2539062 1.51689905,16.2773438 C2.57300613,17.3007813 3.8459565,17.6210938 5.28756274,17.6914063 C6.77334077,17.7734375 11.2266592,17.7734375 12.7124373,17.6914063 C14.1540435,17.625 15.4310095,17.3046875 16.4831009,16.2773438 C17.5351924,15.2539063 17.864473,14.0117188 17.936754,12.609375 C18.021082,11.1640625 18.021082,6.8359375 17.936754,5.390625 Z M16.0172895,14.1601562 C15.7040714,14.9257812 15.0977133,15.515625 14.3066369,15.8242187 C13.1220301,16.28125 10.3110987,16.1757812 9.0020078,16.1757812 C7.6929169,16.1757812 4.87796988,16.2773437 3.69737869,15.8242187 C2.9103179,15.5195312 2.30395984,14.9296875 1.98672616,14.1601562 C1.51689905,13.0078125 1.62532069,10.2734375 1.62532069,9 C1.62532069,7.7265625 1.52091467,4.98828125 1.98672616,3.83984375 C2.29994423,3.07421875 2.90630229,2.484375 3.69737869,2.17578125 C4.8819855,1.71875 7.6929169,1.82421875 9.0020078,1.82421875 C10.3110987,1.82421875 13.1260457,1.72265625 14.3066369,2.17578125 C15.0936977,2.48046875 15.7000558,3.0703125 16.0172895,3.83984375 C16.4871166,4.9921875 16.3786949,7.7265625 16.3786949,9 C16.3786949,10.2734375 16.4871166,13.0117187 16.0172895,14.1601562 Z"></path>
                    </g>
                    <g id="Colors/Primary-Clipped">
                        <mask id="mask-2" fill="white">
                            <use xlink:href="#path-1"></use>
                        </mask>
                        <g id="path-1"></g>
                        <g id="Colors/Primary" mask="url(#mask-2)" fill="#811FD1" fill-rule="nonzero">
                            <g transform="translate(-3.000000, -3.000000)" id="Rectangle">
                                <rect x="0" y="0" width="24" height="24"></rect>
                            </g>
                        </g>
                    </g>
                </g>
            </g>
        </g>
    </g>
</svg>