<svg width="18px" height="18px" viewBox="0 0 18 18" version="1.1" xmlns="http://www.w3.org/2000/svg" xmlns:xlink="http://www.w3.org/1999/xlink">
    <defs>
        <path d="M4.02901138,17.75 L0.29725508,17.75 L0.29725508,6.06640625 L4.02901138,6.06640625 L4.02901138,17.75 Z M2.16112475,4.47265625 C0.96808748,4.47265625 0,3.51171875 0,2.3515625 C0,1.19140625 0.96808748,0.25 2.16112475,0.25 C3.35416202,0.25 4.3222495,1.19140625 4.3222495,2.3515625 C4.3222495,3.51171875 3.35416202,4.47265625 2.16112475,4.47265625 Z M17.995983,17.75 L14.2722607,17.75 L14.2722607,12.0625 C14.2722607,10.7070312 14.2441419,8.96875 12.3320687,8.96875 C10.3918768,8.96875 10.0946217,10.4414062 10.0946217,11.9648437 L10.0946217,17.75 L6.36688239,17.75 L6.36688239,6.06640625 L9.9459942,6.06640625 L9.9459942,7.6601562 L9.9982147,7.6601562 C10.4963178,6.7421875 11.7134568,5.7734375 13.529123,5.7734375 C17.3050658,5.7734375 18,8.1914062 18,11.3320312 L18,17.75 L17.995983,17.75 Z" id="path-1"></path>
    </defs>
    <g id="Page-1" stroke="none" stroke-width="1" fill="none" fill-rule="evenodd">
        <g id="HiGeorge-HomePage-Design-V2-(first-screen-V4)" transform="translate(-688.000000, -6789.000000)">
            <g id="Group-15" transform="translate(560.000000, 6789.000000)">
                <g id="linkedin-in" transform="translate(128.000000, 0.000000)">
                    <g fill="#000000" fill-rule="nonzero" id="path-1">
                        <path d="M4.02901138,17.75 L0.29725508,17.75 L0.29725508,6.06640625 L4.02901138,6.06640625 L4.02901138,17.75 Z M2.16112475,4.47265625 C0.96808748,4.47265625 0,3.51171875 0,2.3515625 C0,1.19140625 0.96808748,0.25 2.16112475,0.25 C3.35416202,0.25 4.3222495,1.19140625 4.3222495,2.3515625 C4.3222495,3.51171875 3.35416202,4.47265625 2.16112475,4.47265625 Z M17.995983,17.75 L14.2722607,17.75 L14.2722607,12.0625 C14.2722607,10.7070312 14.2441419,8.96875 12.3320687,8.96875 C10.3918768,8.96875 10.0946217,10.4414062 10.0946217,11.9648437 L10.0946217,17.75 L6.36688239,17.75 L6.36688239,6.06640625 L9.9459942,6.06640625 L9.9459942,7.6601562 L9.9982147,7.6601562 C10.4963178,6.7421875 11.7134568,5.7734375 13.529123,5.7734375 C17.3050658,5.7734375 18,8.1914062 18,11.3320312 L18,17.75 L17.995983,17.75 Z"></path>
                    </g>
                    <g id="Colors/Primary-Clipped">
                        <mask id="mask-2" fill="white">
                            <use xlink:href="#path-1"></use>
                        </mask>
                        <g id="path-1"></g>
                        <g id="Colors/Primary" mask="url(#mask-2)" fill="#811FD1" fill-rule="nonzero">
                            <g transform="translate(-3.000000, -3.000000)" id="Rectangle">
                                <rect x="0" y="0" width="24" height="24"></rect>
                            </g>
                        </g>
                    </g>
                </g>
            </g>
        </g>
    </g>
</svg>