<?xml version="1.0" encoding="UTF-8"?>
<svg width="122px" height="46px" viewBox="0 0 122 46" version="1.1" xmlns="http://www.w3.org/2000/svg" xmlns:xlink="http://www.w3.org/1999/xlink">
    <!-- Generator: sketchtool 58 (101010) - https://sketch.com -->
    <title>068EE23F-1B0F-48F0-BDF1-17F8C0B2BA27</title>
    <desc>Created with sketchtool.</desc>
    <defs>
        <polygon id="path-1" points="0.0994446384 0.0995930974 12.7223077 0.0995930974 12.7223077 12.7344169 0.0994446384 12.7344169"></polygon>
        <polygon id="path-3" points="0.0409252656 0.0158846909 44.8241884 0.0158846909 44.8241884 40.8860486 0.0409252656 40.8860486"></polygon>
    </defs>
    <g id="Page-1" stroke="none" stroke-width="1" fill="none" fill-rule="evenodd">
        <g id="HiGeorge-HomePage-Design-V2-(first-screen-V4)" transform="translate(-405.000000, -15.000000)">
            <g id="Group-22" transform="translate(405.000000, 15.000000)">
                <polygon id="Fill-1" fill="#8A39FC" points="0 40.7579022 4.1801839 40.7706276 4.19982946 34.5733571 11.0016489 34.593336 10.9820033 40.7912428 15.1505308 40.8039682 15.2014783 24.8486052 11.0329508 24.8357526 11.0123885 31.400151 4.2103071 31.3800448 4.23100043 24.8152647 0.0509475056 24.802412"></polygon>
                <polygon id="Fill-2" fill="#8A39FC" points="18.4017896 40.7911171 22.363543 40.8039682 22.4021786 28.0154418 18.4402968 28.0027233"></polygon>
                <g id="Group-21" transform="translate(18.401790, 0.000000)">
                    <path d="M2.17404882,22.7673262 C1.56561994,22.765798 1.06849678,22.9601293 0.682043308,23.3513538 C0.295081012,23.7419379 0.100709418,24.2434586 0.0987852623,24.8557878 C0.0967660153,25.4678608 0.288211859,25.9728402 0.672757231,26.3694451 C1.05679378,26.7665624 1.55289928,26.9657615 2.16120096,26.967827 C2.76912102,26.9698608 3.26827948,26.7733518 3.65905797,26.3787966 C4.04945485,25.9842414 4.24535292,25.4811834 4.24740224,24.8684699 C4.24929632,24.2563969 4.056324,23.7532109 3.66847126,23.3601929 C3.27998248,22.9670468 2.78184167,22.7692568 2.17404882,22.7673262" id="Fill-3" fill="#8A39FC"></path>
                    <path d="M24.4045112,28.665052 C25.1131788,28.2459011 25.902241,28.0372224 26.7697896,28.0396563 C27.5112765,28.0420902 28.2616679,28.2014496 29.0209637,28.5172218 C29.7796236,28.8332503 30.4477123,29.260856 31.0242123,29.8005511 L33.3017182,27.0294412 C32.4882324,26.2955429 31.4983111,25.7119086 30.3315727,25.2789227 C29.1653432,24.8459367 27.9889371,24.627266 26.8026089,24.6237465 C25.1411643,24.618427 23.6429256,24.9705803 22.3056033,25.6793706 C20.9690441,26.388289 19.9150108,27.363404 19.1435031,28.603819 C18.3721226,29.8450027 17.9841427,31.2309419 17.9797681,32.7616369 C17.9748566,34.3074479 18.3427379,35.7047883 19.0842248,36.9541704 C19.825839,38.2036807 20.8436185,39.1885315 22.1395987,39.9097477 C23.4346885,40.6303234 24.8796276,40.9933655 26.4739072,40.9984077 C27.5863284,41.0018202 28.7525579,40.8113321 29.9739951,40.4266407 C31.1946691,40.0423337 32.2399253,39.5452966 33.1092547,38.9356575 L33.1288446,32.6742711 L29.625322,32.6633824 L29.6120925,36.8190225 C29.1222202,37.056268 28.6305669,37.2438098 28.1367511,37.3798545 C27.6430625,37.5165397 27.1924969,37.5845621 26.7849272,37.5830248 C25.9175058,37.5802066 25.1264083,37.3689658 24.412398,36.9482777 C23.6977516,36.528102 23.1377885,35.9529225 22.732254,35.223892 C22.3267196,34.4943492 22.1254788,33.678081 22.1284046,32.774319 C22.1308215,31.8860573 22.3330799,31.0840085 22.7361974,30.3683007 C23.1382973,29.6525929 23.6946987,29.0848433 24.4045112,28.665052" id="Fill-5" fill="#8A39FC"></path>
                    <path d="M39.2420856,33.6118778 C39.3709458,32.8433918 39.6633937,32.2358024 40.1208284,31.7888533 C40.5782631,31.3424166 41.1406432,31.1200309 41.8077143,31.1219401 C42.5199437,31.1245145 43.0919915,31.3543301 43.5244938,31.811015 C43.9564872,32.2678279 44.1719751,32.8729834 44.1694532,33.62725 L39.2420856,33.6118778 Z M41.7719693,28.3666795 C40.5116069,28.3626279 39.3984224,28.6226757 38.4329248,29.1461019 C37.4675544,29.6694 36.7122019,30.4117531 36.1681395,31.3735455 C35.62395,32.3348255 35.3500743,33.4432951 35.3462145,34.6976732 C35.3423147,35.9519233 35.6058866,37.0543721 36.1367195,38.0043791 C36.6676796,38.9543861 37.4220144,39.6902059 38.3987062,40.2120949 C39.3757797,40.7344963 40.5244547,40.9973623 41.844477,41.0013816 C42.9490114,41.0047922 43.9583953,40.821734 44.8714838,40.4508777 C45.7844452,40.0804057 46.5611683,39.5451941 47.20089,38.845371 L45.1383632,36.788944 C44.7215073,37.2057891 44.2644542,37.5200241 43.7673311,37.7310087 C43.2702079,37.9427619 42.7471346,38.0472934 42.1981112,38.0452437 C41.4643839,38.0433222 40.849213,37.841561 40.353998,37.4406007 C39.8582741,37.0395122 39.511509,36.4727874 39.3131941,35.7402982 L47.9444122,35.7674559 C47.9595498,35.6032287 47.9679454,35.3531729 47.9690196,35.0167762 C47.9753234,32.9337039 47.4442361,31.3059074 46.3771005,30.1340272 C45.3088199,28.9620188 43.7743274,28.3731323 41.7719693,28.3666795 L41.7719693,28.3666795 Z" id="Fill-7" fill="#8A39FC"></path>
                    <path d="M58.1896524,37.0987852 C57.6803175,37.6866468 57.0208788,37.9796169 56.2128628,37.977198 C55.3973417,37.974749 54.7365037,37.6778078 54.2300945,37.0863592 C53.724194,36.4949107 53.4723251,35.7172014 53.4752257,34.754256 C53.4783038,33.8057863 53.7348794,33.0338415 54.2442144,32.4379094 C54.7541854,31.8421054 55.4169315,31.5456766 56.2323254,31.5480957 C57.0405958,31.5505445 57.697872,31.8514569 58.2037724,32.4503354 C58.7103088,33.0492138 58.9615417,33.8230801 58.9586412,34.7710374 C58.9556902,35.7344952 58.6996235,36.510283 58.1896524,37.0987852 M59.7492046,29.2012756 C58.7309163,28.6788742 57.5621426,28.4160082 56.2421203,28.4119791 C54.9074693,28.4075534 53.7348794,28.6635019 52.7253683,29.1791139 C51.7153484,29.6954944 50.926795,30.4304176 50.3600899,31.3843957 C49.7938936,32.3383739 49.5089509,33.4422318 49.5049662,34.6971224 C49.5010641,35.9513725 49.7792648,37.05728 50.3396096,38.0151012 C50.9003361,38.9725382 51.6845644,39.7164285 52.6910225,40.2456193 C53.6976079,40.7754506 54.8684169,41.0422878 56.2030679,41.0461911 C57.5230902,41.0507425 58.6936448,40.7906948 59.7148589,40.2672686 C60.7362002,39.7444829 61.5242447,39.0057167 62.0796285,38.0516104 C62.6346306,37.0977604 62.9143578,35.99339 62.9182161,34.7390119 C62.9221174,33.4841213 62.6493865,32.3782137 62.1002359,31.4209049 C61.5507037,30.463468 60.7669842,29.7236769 59.7492046,29.2012756" id="Fill-9" fill="#8A39FC"></path>
                    <path d="M69.4482963,30.6706479 L69.4546566,28.5875757 L65.50642,28.5754059 L65.4681308,40.9406129 L69.4164946,40.9530389 L69.4359572,34.6023651 C69.5276732,33.7885309 69.881689,33.1457133 70.4983863,32.6732719 C71.1154652,32.2012147 71.9096156,31.9664031 72.8812192,31.96999 C73.1257102,31.9703743 73.3074883,31.9787009 73.4264264,31.9940732 L73.437239,28.4209145 C72.5545528,28.4326999 71.7752855,28.6320272 71.09931,29.0182557 C70.4234616,29.4044843 69.8729117,29.9554525 69.4482963,30.6706479" id="Fill-11" fill="#8A39FC"></path>
                    <path d="M83.226978,36.6281628 C82.7537697,37.1864328 82.1356731,37.4646711 81.3720522,37.462253 C80.6006718,37.4598032 79.9771053,37.1781061 79.5004624,36.6162493 C79.0239467,36.0549048 78.7874697,35.3298455 78.789743,34.4410714 C78.7928124,33.5379499 79.0342504,32.808407 79.5138191,32.2535958 C79.9942782,31.6990407 80.6192439,31.4228521 81.3906244,31.4248904 C82.1542453,31.4272075 82.7709426,31.7074955 83.2402075,32.2652531 C83.7093452,32.8232669 83.942006,33.5537065 83.9392324,34.4573404 C83.9366633,35.3461145 83.6991687,36.0693803 83.226978,36.6281628 L83.226978,36.6281628 Z M83.9523097,30.1449031 C83.5388884,29.6135345 83.0359138,29.2052724 82.4437673,28.9196041 C81.8514937,28.6335516 81.1776806,28.4895645 80.4208017,28.4874777 C79.3903015,28.4840561 78.4718703,28.7218141 77.6656353,29.2011731 C76.8594002,29.6802759 76.2349433,30.361396 75.7907381,31.2449179 C75.3470417,32.128696 75.1231581,33.1527461 75.1196841,34.317837 C75.116289,35.4976596 75.3372467,36.5418218 75.7828513,37.4504517 C76.2290918,38.3590817 76.8492237,39.0647975 77.645155,39.5674711 C78.4405775,40.0700166 79.3535389,40.3231468 80.384039,40.3266056 C81.1476599,40.3290395 81.82707,40.1895361 82.4212518,39.9073266 C83.0153063,39.6252452 83.5168817,39.2162145 83.9263596,38.6801061 L83.9224162,39.9905931 C83.9199992,40.7671496 83.6477772,41.3840905 83.1049869,41.8412877 C82.5621966,42.2991255 81.8202009,42.5265072 80.8783637,42.5235608 C80.2259213,42.5215112 79.5695356,42.4130085 78.9107329,42.1980528 C78.2510398,41.9834813 77.640194,41.6770605 77.077941,41.2795589 L75.7020751,43.9525425 C76.4344032,44.4471456 77.2709134,44.845672 78.2118601,45.1476093 C79.1522981,45.448906 80.138276,45.6014759 81.1687762,45.6043585 C82.4887985,45.6087777 83.6521023,45.3789621 84.6581788,44.9152316 C85.6641281,44.4516292 86.4449219,43.7857532 86.999924,42.9177317 C87.5553078,42.049454 87.8345261,41.0402638 87.8379607,39.8905452 L87.8726881,28.6449527 L83.9571435,28.6330392 L83.9523097,30.1449031 Z" id="Fill-13" fill="#8A39FC"></path>
                    <g id="Group-17" transform="translate(90.189437, 28.438721)">
                        <mask id="mask-2" fill="white">
                            <use xlink:href="#path-1"></use>
                        </mask>
                        <g id="Clip-16"></g>
                        <path d="M3.99544295,5.34491665 C4.12417597,4.57630257 4.41662381,3.96871315 4.87405853,3.52189217 C5.33162045,3.07532739 5.89387336,2.85294172 6.56094446,2.85497732 C7.27317388,2.8574253 7.84522169,3.0867285 8.27772393,3.54341336 C8.70984455,4.00073874 8.92520522,4.60589422 8.92280841,5.36016083 L3.99544295,5.34491665 Z M12.7223747,6.74968697 C12.7285536,4.66661473 12.1975935,3.03894632 11.1303306,1.86693796 C10.0620501,0.694929605 8.52755757,0.106043122 6.52519942,0.0995930974 C5.26483702,0.0956668317 4.15165258,0.355074082 3.18628215,0.879012675 C2.2207845,1.40231076 1.46555927,2.14466385 0.921369693,3.10594385 C0.37730732,4.06773626 0.103304432,5.17569345 0.0994446384,6.43058403 C0.0955448325,7.68483409 0.359116784,8.78728288 0.890076884,9.73677747 C1.42103698,10.6872969 2.17524456,11.4231167 3.15193638,11.9450057 C4.12913702,12.4670228 5.27768488,12.7302731 6.59770715,12.7344169 C7.70224154,12.737703 8.71162544,12.5541324 9.62471399,12.1837885 C10.5376753,11.8133165 11.3145257,11.2781049 11.9541202,10.5777694 L9.89172051,8.52198292 C9.47473747,8.93869985 9.01781158,9.25293491 8.52068842,9.46391947 C8.02356526,9.67567265 7.50049197,9.78020416 6.95134133,9.77815452 C6.21761401,9.77623299 5.60244318,9.5745999 5.10722811,9.17351145 C4.61163143,8.77242301 4.2647392,8.20569823 4.0664242,7.47320902 L12.6976424,7.50036672 C12.7129072,7.33613951 12.7213028,7.08608373 12.7223747,6.74968697 L12.7223747,6.74968697 Z" id="Fill-15" fill="#8A39FC" mask="url(#mask-2)"></path>
                    </g>
                    <g id="Group-20" transform="translate(7.886806, 0.000000)">
                        <mask id="mask-4" fill="white">
                            <use xlink:href="#path-3"></use>
                        </mask>
                        <g id="Clip-19"></g>
                        <path d="M2.49964668,35.4753698 L2.39966234,35.5168749 L2.37409383,35.4261785 C2.37409383,35.4261785 9.67969265,9.48327573 32.0119457,3.35665295 L28.9792146,7.72929842 C28.9792146,7.72929842 12.2538442,12.6832723 2.49964668,35.4753698 M12.2538442,23.0069123 C19.5646585,16.3678801 24.032025,21.5365535 33.9286938,16.6307461 L31.139436,13.9408531 L37.264431,11.9233692 L44.8241884,0.183557851 C44.8241884,0.183557851 10.8954056,-4.30361111 2.37409383,33.1307125 C2.37409383,33.1307125 -0.269639704,35.0209907 0.0712738246,40.8805201 C0.0795422498,41.0229699 0.919105417,38.3681769 1.74454866,38.0459995 C2.5699919,37.7239502 5.09300642,37.358218 4.76723047,33.9815683 C4.5965193,32.2120906 8.2587956,26.6348988 12.2538442,23.0069123" id="Fill-18" fill="#8A39FC" mask="url(#mask-4)"></path>
                    </g>
                </g>
            </g>
        </g>
    </g>
</svg>