<?xml version="1.0" encoding="UTF-8"?>
<svg width="147px" height="17px" viewBox="0 0 147 17" version="1.1" xmlns="http://www.w3.org/2000/svg" xmlns:xlink="http://www.w3.org/1999/xlink">
    <title>7ABF77A7-808D-4E43-B86F-01A811EE976D</title>
    <defs>
        <polygon id="path-1" points="0 15.6266824 145.904941 15.6266824 145.904941 -0.000141176471 0 -0.000141176471"></polygon>
    </defs>
    <g id="Viz-Library" stroke="none" stroke-width="1" fill="none" fill-rule="evenodd">
        <g id="Data-Visualization-Library" transform="translate(-113.000000, -34.000000)">
            <g id="Logo---color" transform="translate(113.000000, 34.500000)">
                <g id="Group-20">
                    <path d="M75.2840941,12.04 C75.4022118,11.9091765 75.5212706,11.7816471 75.6403294,11.6578824 C75.5212706,11.7816471 75.4022118,11.9091765 75.2840941,12.04" id="Fill-1" fill="#24205E"></path>
                    <path d="M74.6016471,12.8460706 C74.5875294,12.8681882 74.5588235,12.9119529 74.5197647,12.9726588 C74.5588235,12.9119529 74.5875294,12.8681882 74.6016471,12.8460706" id="Fill-3" fill="#24205E"></path>
                    <path d="M84.4063059,8.39087059 L84.3545412,8.39369412 L84.3376,8.39510588 L84.3206588,8.39604706 C84.3098353,8.39651765 84.2943059,8.39745882 84.2806588,8.39792941 C84.0444235,11.1965176 82.1418353,13.2525176 79.3093647,13.2525176 C78.0063059,13.2525176 76.9098353,12.8195765 76.0764235,12.0878118 C75.8321882,12.3419294 75.6119529,12.5875765 75.4025412,12.8379294 C75.3686588,12.8788706 75.3347765,12.9188706 75.3004235,12.9588706 C75.2373647,13.0336941 75.1733647,13.1080471 75.1107765,13.1871059 C75.0557176,13.2718118 74.8416,13.6012235 74.5912471,14.0087529 C74.5766588,14.0318118 74.5616,14.0576941 74.5474824,14.0812235 C75.8256,15.0473412 77.4543059,15.6040471 79.3093647,15.6040471 C83.8086588,15.6040471 87.0199529,12.3028706 87.0204235,7.80263529 C86.6863059,7.95228235 86.1630118,8.14192941 85.4500706,8.26898824 C85.0797176,8.3344 84.7460706,8.37345882 84.4063059,8.39087059" id="Fill-5" fill="#24205E"></path>
                    <path d="M73.1696471,12.3306824 L73.1837647,12.2812706 L73.1894118,12.2610353 C73.1992941,12.2257412 73.2091765,12.1918588 73.2214118,12.1485647 L73.2425882,12.0793882 L73.2552941,12.0379765 C73.2675294,11.9970353 73.2797647,11.9560941 73.2948235,11.9090353 C73.3056471,11.8751529 73.3178824,11.8370353 73.3305882,11.7989176 L73.3414118,11.7655059 C73.3574118,11.7160941 73.3738824,11.6671529 73.3922353,11.6130353 C73.4063529,11.5702118 73.4223529,11.5245647 73.4388235,11.4784471 L73.4543529,11.4332706 C73.4741176,11.3782118 73.4934118,11.3226824 73.5150588,11.2638588 C73.5324706,11.2153882 73.5517647,11.1645647 73.5715294,11.1132706 L73.5875294,11.0709176 C73.6124706,11.0040941 73.6383529,10.9372706 73.6665882,10.8662118 C73.6807059,10.8295059 73.6962353,10.7913882 73.7117647,10.7523294 L73.7301176,10.7080941 L73.7357647,10.6935059 L73.7508235,10.6558588 C73.7814118,10.5819765 73.812,10.5071529 73.8449412,10.4299765 C73.8774118,10.3532706 73.9117647,10.2737412 73.9470588,10.1937412 C73.9809412,10.1170353 74.0157647,10.0389176 74.052,9.95938824 C74.0764706,9.90668235 74.1014118,9.85209412 74.1272941,9.79797647 L74.1390588,9.77350588 L74.1522353,9.74432941 L74.172,9.70291765 C74.2110588,9.62009412 74.252,9.53632941 74.2938824,9.45068235 C74.3367059,9.36268235 74.3818824,9.27374118 74.4284706,9.18385882 C74.4345882,9.17115294 74.4416471,9.15797647 74.4482353,9.14527059 C74.3616471,8.71750588 74.3117647,8.26997647 74.3117647,7.80221176 C74.3117647,4.68174118 76.2562353,2.35232941 79.3094118,2.35232941 C79.7098824,2.35232941 80.0891765,2.39891765 80.4496471,2.47750588 C80.5108235,2.43844706 80.5701176,2.39891765 80.6322353,2.3608 C80.7037647,2.31750588 80.7776471,2.27609412 80.8515294,2.23421176 L80.9390588,2.18527059 L80.9564706,2.17491765 L80.9978824,2.15138824 L81.0698824,2.11044706 C81.1983529,2.03703529 81.3263529,1.96362353 81.4590588,1.89397647 C81.5531765,1.84456471 81.6501176,1.79703529 81.748,1.74997647 L81.8543529,1.69821176 L81.9023529,1.67468235 C82.0425882,1.60550588 82.1884706,1.53444706 82.3414118,1.46574118 C82.4482353,1.41774118 82.5583529,1.37256471 82.6689412,1.32738824 L82.7649412,1.28785882 C82.916,1.22527059 83.0670588,1.16315294 83.2303529,1.10150588 C83.2463529,1.09491765 83.2623529,1.08832941 83.2778824,1.08268235 C83.3028235,1.07327059 83.3287059,1.06527059 83.3536471,1.05585882 C82.2007059,0.382447059 80.8303529,0.000329411765 79.3094118,0.000329411765 C74.7865882,0.000329411765 71.5969412,3.30197647 71.5969412,7.80221176 C71.5969412,9.6168 72.1174118,11.2356235 73.0331765,12.5222118 C73.0764706,12.4600941 73.1207059,12.4008 73.1663529,12.3438588 L73.1696471,12.3306824 Z" id="Fill-7" fill="#24205E"></path>
                    <path d="M83.5051294,1.69096471 C82.2434824,2.16484706 81.0359529,2.80155294 79.9074824,3.61472941 C78.4561882,4.66131765 77.1884235,5.9592 76.1625412,7.42508235 C75.0768941,8.97708235 74.5140706,10.7879059 73.7390118,12.4970824 C73.4952471,13.0354353 73.1150118,13.5690824 73.0077176,14.1559059 C72.9300706,14.5784941 72.8660706,15.1756706 73.0397176,15.5784941 C73.4067765,15.0392 73.6232471,14.3672 73.9757176,13.8062588 C74.3446588,13.2194353 74.7587765,12.6617882 75.2105412,12.1361412 C76.1013647,11.1008471 77.1376,10.1902588 78.2745412,9.43355294 C79.0834824,8.89567059 79.9498353,8.43402353 80.8783059,8.14743529 C81.6321882,7.91496471 82.4232471,7.85284706 83.2072471,7.81331765 C83.9879529,7.77425882 84.7752471,7.7592 85.5465412,7.6152 C85.8208941,7.56390588 86.0919529,7.49472941 86.3564235,7.40390588 C86.4900706,7.35825882 86.6218353,7.30696471 86.7512471,7.25002353 C86.7794824,7.23731765 87.0801882,7.08108235 87.0834824,7.08484706 C87.0406588,7.0632 86.9959529,6.99496471 86.9625412,6.96014118 C86.9173647,6.91402353 86.8721882,6.86743529 86.8274824,6.82084706 C86.7371294,6.72861176 86.6472471,6.63543529 86.5568941,6.5432 C86.3705412,6.35072941 86.1837176,6.1592 85.9973647,5.96672941 L86.7851294,5.76014118 L86.8994824,5.73049412 L88.6552471,5.26978824 L91.8458353,0.696141176 C91.4190118,0.656611765 91.0048941,0.632141176 90.5964235,0.616141176 C88.1550118,0.518258824 85.7446588,0.849082353 83.5051294,1.69096471" id="Fill-9" fill="#E41F32"></path>
                    <polygon id="Fill-11" fill="#24205E" points="10.4881412 15.3247059 10.4881412 8.72470588 2.64531765 8.72470588 2.64531765 15.3247059 0.000141176471 15.3247059 0.000141176471 0.248470588 2.64531765 0.248470588 2.64531765 6.39623529 10.4881412 6.39623529 10.4881412 0.248470588 13.1323765 0.248470588 13.1323765 15.3247059"></polygon>
                    <mask id="mask-2" fill="white">
                        <use xlink:href="#path-1"></use>
                    </mask>
                    <g id="Clip-14"></g>
                    <polygon id="Fill-13" fill="#24205E" mask="url(#mask-2)" points="21.5449412 15.3245647 24.1896471 15.3245647 24.1896471 0.248329412 21.5449412 0.248329412"></polygon>
                    <path d="M31.9435765,7.79778824 C31.9435765,3.05143529 35.4701647,0.000141176471 39.8551059,0.000141176471 C42.7934588,0.000141176471 44.7153412,1.40108235 45.9129882,3.1192 L43.7652235,4.36249412 C42.9520471,3.23214118 41.5275765,2.35025882 39.8551059,2.35025882 C36.8715765,2.35025882 34.6569882,4.61096471 34.6569882,7.79778824 C34.6569882,10.9399059 36.8715765,13.2453176 39.8551059,13.2453176 C41.3920471,13.2453176 42.7482824,12.5441412 43.4259294,11.8890824 L43.4259294,9.56108235 L38.9054588,9.56108235 L38.9054588,7.23308235 L46.0485176,7.23308235 L46.0485176,12.8608471 C44.5798118,14.5107294 42.4541647,15.6184941 39.8551059,15.6184941 C35.4701647,15.6184941 31.9435765,12.5220235 31.9435765,7.79778824" id="Fill-15" fill="#24205E" mask="url(#mask-2)"></path>
                    <polygon id="Fill-16" fill="#24205E" mask="url(#mask-2)" points="54.0083294 15.3247059 54.0083294 0.248470588 64.3377412 0.248470588 64.3377412 2.57647059 56.6535059 2.57647059 56.6535059 6.464 64.1800941 6.464 64.1800941 8.79247059 56.6535059 8.79247059 56.6535059 12.9967059 64.3377412 12.9967059 64.3377412 15.3247059"></polygon>
                    <path d="M103.607153,4.94969412 C103.607153,3.50310588 102.522447,2.57651765 101.030212,2.57651765 L97.3916235,2.57651765 L97.3916235,7.36851765 L101.030212,7.36851765 C102.522447,7.36851765 103.607153,6.41934118 103.607153,4.94969412 L103.607153,4.94969412 Z M103.358682,15.3247529 L100.036329,9.69651765 L97.3916235,9.69651765 L97.3916235,15.3247529 L94.7469176,15.3247529 L94.7469176,0.248517647 L101.369506,0.248517647 C104.353035,0.248517647 106.319624,2.16992941 106.319624,4.97228235 C106.319624,7.63957647 104.557271,9.10875294 102.726212,9.40287059 L106.432565,15.3247529 L103.358682,15.3247529 Z" id="Fill-17" fill="#24205E" mask="url(#mask-2)"></path>
                    <path d="M113.510635,7.79778824 C113.510635,3.05143529 117.037224,0.000141176471 121.422165,0.000141176471 C124.360518,0.000141176471 126.2824,1.40108235 127.480047,3.1192 L125.332282,4.36249412 C124.519106,3.23214118 123.094635,2.35025882 121.422165,2.35025882 C118.438635,2.35025882 116.224047,4.61096471 116.224047,7.79778824 C116.224047,10.9399059 118.438635,13.2453176 121.422165,13.2453176 C122.959106,13.2453176 124.315341,12.5441412 124.992988,11.8890824 L124.992988,9.56108235 L120.472518,9.56108235 L120.472518,7.23308235 L127.615576,7.23308235 L127.615576,12.8608471 C126.146871,14.5107294 124.021224,15.6184941 121.422165,15.6184941 C117.037224,15.6184941 113.510635,12.5220235 113.510635,7.79778824" id="Fill-18" fill="#24205E" mask="url(#mask-2)"></path>
                    <polygon id="Fill-19" fill="#24205E" mask="url(#mask-2)" points="135.575435 15.3247059 135.575435 0.248470588 145.904847 0.248470588 145.904847 2.57647059 138.220612 2.57647059 138.220612 6.464 145.7472 6.464 145.7472 8.79247059 138.220612 8.79247059 138.220612 12.9967059 145.904847 12.9967059 145.904847 15.3247059"></polygon>
                </g>
            </g>
        </g>
    </g>
</svg>